<svg xmlns="http://www.w3.org/2000/svg" width="24" height="24" viewBox="0 0 24 24">
    <defs>
        <filter id="prefix__a">
            <feColorMatrix in="SourceGraphic" values="0 0 0 0 0.800000 0 0 0 0 0.000000 0 0 0 0 0.039216 0 0 0 1.000000 0"/>
        </filter>
    </defs>
    <g fill="none" fill-rule="evenodd" filter="url(#prefix__a)">
        <path fill="#000" d="M12.2 1c.276 0 .5.224.5.5l.001.524c4.931.342 8.878 4.258 9.267 9.176h.532c.276 0 .5.224.5.5v.5c0 .276-.224.5-.5.5l-.524.001c-.344 4.964-4.31 8.931-9.275 9.275l-.001.524c0 .276-.224.5-.5.5h-.5c-.276 0-.5-.224-.5-.5v-.532c-4.918-.389-8.834-4.336-9.176-9.267L1.5 12.7c-.276 0-.5-.224-.5-.5v-.5c0-.276.224-.5.5-.5h.532c.386-4.885 4.283-8.782 9.168-9.168V1.5c0-.276.224-.5.5-.5h.5zm.5 2.528V4.5c0 .276-.224.5-.5.5h-.5c-.276 0-.5-.224-.5-.5v-.963c-4.056.379-7.284 3.607-7.663 7.663H4.5c.276 0 .5.224.5.5v.5c0 .276-.224.5-.5.5h-.972c.335 4.103 3.583 7.381 7.672 7.763V19.5c0-.276.224-.5.5-.5h.5c.276 0 .5.224.5.5v.972c4.136-.338 7.434-3.636 7.772-7.771L19.5 12.7c-.276 0-.5-.224-.5-.5v-.5c0-.276.224-.5.5-.5h.963c-.382-4.089-3.66-7.337-7.762-7.672zM12 7.5c2.485 0 4.5 2.015 4.5 4.5s-2.015 4.5-4.5 4.5-4.5-2.015-4.5-4.5S9.515 7.5 12 7.5zM12 9c-1.657 0-3 1.343-3 3s1.343 3 3 3 3-1.343 3-3-1.343-3-3-3z"/>
    </g>
</svg>
